<svg width="52" height="51" viewBox="0 0 52 51" fill="none" xmlns="http://www.w3.org/2000/svg">
    <path d="M49.4375 42.5625C51.4688 44.4375 51.4688 47.7188 49.4375 49.5938C48.5 50.5312 47.25 51 46 51C44.5938 51 43.3438 50.5312 42.4062 49.5938L26 33.1875L9.4375 49.5938C8.5 50.5312 7.25 51 6 51C4.59375 51 3.34375 50.5312 2.40625 49.5938C0.375 47.7188 0.375 44.4375 2.40625 42.5625L18.8125 26L2.40625 9.59375C0.375 7.71875 0.375 4.4375 2.40625 2.5625C4.28125 0.53125 7.5625 0.53125 9.4375 2.5625L26 18.9688L42.4062 2.5625C44.2812 0.53125 47.5625 0.53125 49.4375 2.5625C51.4688 4.4375 51.4688 7.71875 49.4375 9.59375L33.0312 26.1562L49.4375 42.5625Z"
          fill="#EB1751"/>
</svg>
